<svg xmlns="http://www.w3.org/2000/svg" viewBox="0 0 711.9 371.02"><defs><style>.cls-1{fill:#007864;}.cls-2{fill:#cba052;}</style></defs><title>IMAGOTIPO-COLOR</title><g id="Capa_2" data-name="Capa 2"><g id="Capa_1-2" data-name="Capa 1"><path class="cls-1" d="M0,313.34c0-32,26-57.67,62-57.67,14.18,0,27.19,4.28,37.5,12l-3.89,4.12A57.39,57.39,0,0,0,62,261.06c-32.61,0-55.92,23.6-55.92,52.28S29.39,365.63,62,365.63a57.39,57.39,0,0,0,33.61-10.77L99.5,359c-10.31,7.77-23.32,12-37.5,12C26,371,0,345.35,0,313.34Z"/><path class="cls-1" d="M592.93,263.59H525V292.9h44.26v5.71H518.94V257.89h74Zm0,105.21h-74V328.08h50.34v5.7H525v29.31h67.91Z"/><path class="cls-1" d="M654.25,257.89c76.86,0,76.86,110.91,0,110.91h-30.4V257.89Zm0,105.2c68.08,0,68.08-99.5,0-99.5H629.93v99.5Z"/><path class="cls-1" d="M207.78,263.59H139.87V292.9h44.26v5.71H133.79V257.89h74Zm0,105.21h-74V328.08h50.34v5.7H139.87v29.31h67.91Z"/><path class="cls-1" d="M238.69,257.89h6.09V368.8h-6.09Z"/><path class="cls-2" d="M377.55,364.36l-3.89,4.44-80.07-61.64V368.8h-6.08V295Zm-84.46-102,3.88-4.43L377,319.52V257.89h6.08v73.83Z"/><path class="cls-1" d="M410.66,257.89h75.68v5.7h-34.8V368.8h-6.08V263.59h-34.8Z"/><path class="cls-1" d="M471.24,143.05a8.38,8.38,0,0,0-.6-.88c-.56-.73-.9-1.17-.4-2.16a2.41,2.41,0,0,1,.55-.63,3.1,3.1,0,0,0,.89-1.18,4.46,4.46,0,0,0-.54-3.45,8.27,8.27,0,0,1-.52-1.33c-.52-1.94-.07-3.86.41-5.9.21-.88.42-1.8.55-2.71.31-2.28.29-6.2-2.87-8.23h0a7.93,7.93,0,0,0-.4-4.72c-.18-.61-.38-1.25-.52-1.93a5.65,5.65,0,0,1,.49-3.14,11.41,11.41,0,0,0,.59-2,11.08,11.08,0,0,0-.09-3.8,17.71,17.71,0,0,0-4-7.81c-.36-.44-.75-.87-1.13-1.28a13.23,13.23,0,0,1-2.35-3.13,14.5,14.5,0,0,1-1-4.12c0-.35-.11-.69-.16-1-.17-1-.32-2-.46-3A50.38,50.38,0,0,0,458.13,73c-1.58-5.12-5.92-8.26-10.85-11.09a.29.29,0,0,1-.13-.39c2.07-4.26.37-8.06-1.44-11a9.15,9.15,0,0,1-1.07-3.77,10.57,10.57,0,0,0-1.08-3.92,17.25,17.25,0,0,0-3.53-4l-.65-.6c-1.5-1.35-3-2.75-3.66-4.58a11.15,11.15,0,0,1-.46-2.42,9.24,9.24,0,0,0-.89-3.52c-1.24-2.32-3.57-3.64-5.82-4.91-.84-.47-1.71-1-2.48-1.48a9,9,0,0,1-3-3.73c-.26-.49-.53-1-.86-1.53A12.91,12.91,0,0,0,418,12.15a71.24,71.24,0,0,0-13.71-7C397.11,2.45,386.52-.65,376.77.12c-4.73.37-8.75,2-11.31,4.6C362,8.25,361,13.85,362.33,16.48a20.42,20.42,0,0,0,1.22,1.93,3.62,3.62,0,0,1-.33-1.6.45.45,0,0,1-.33-.39c-.43-3.8.06-8.39,3-11.36a14.53,14.53,0,0,1,1.1-1,14.53,14.53,0,0,0-1.1,1c-2.93,3-3.42,7.56-3,11.36a.45.45,0,0,0,.33.39,3.62,3.62,0,0,0,.33,1.6,5,5,0,0,0,.31.54,4.68,4.68,0,0,0,.73.86c0,.16-.08.32-.14.49-.11.33-.23.61-.35.88a6.42,6.42,0,0,0-.62,2.36c0,.41-.08.84-.13,1.3a10.92,10.92,0,0,0-.08,3.22,3.55,3.55,0,0,0,1,1.67c.23.28.95,1.15,1.33,1.74a6.1,6.1,0,0,0-1.36,4.08c.08,3.27,1.36,7.71,4.62,9.74-3,3.92-3.72,9.83-4.21,13.91A14.66,14.66,0,0,0,364.8,65a13.51,13.51,0,0,0,1.82,3.57c.28.43.58.88.84,1.34,1.51,2.6,1,4.08-.13,6.92a6.56,6.56,0,0,0-.6,3.58c-2.23,1.22-2.79,4.3-2.58,6.57.27,3,1.83,5.66,3.23,7.89a12.15,12.15,0,0,0-.71,1.39c-1.27,2.94-1.32,6.11-1.36,9.18l0,1.47a58.19,58.19,0,0,0,1.23,11.62c.15.82.29,1.65.43,2.48l0,.18c.39,2.33.79,4.74,1.07,7.11a5.27,5.27,0,0,1-1.44,4.82c-.16.21-.34.41-.52.62a10.6,10.6,0,0,0-.93,1.15c-1.49,2.27-2,5.58.54,7.49l.1.08a6,6,0,0,0-.58,6.06,10.14,10.14,0,0,0,2.66,3.56l-.13.15a8.14,8.14,0,0,0-1.5,4.74,7.47,7.47,0,0,0,.86,3,7,7,0,0,1,.74,2.39,4.93,4.93,0,0,1-.87,2.47,8.5,8.5,0,0,0-.87,1.89,9.34,9.34,0,0,0-.12,4.15,9.91,9.91,0,0,0,5.27,7c.17.08.34.14.52.21-.87.87-1.81,1.72-2.73,2.54a29.43,29.43,0,0,0-5.64,6.13h0a1.07,1.07,0,0,1-.06.12c-.16.26-.31.52-.45.79v.15c-.81,1.89-2,5.89.42,8.6a6.47,6.47,0,0,0,2.26,1.78A9.21,9.21,0,0,0,368,199a.56.56,0,0,0,0,.12,1.1,1.1,0,0,0,0,.48,19.8,19.8,0,0,0-.91,2.31c-.41,1.18-.84,2.51-.89,2.79-.14.72-.24,1.48-.32,2.25-.23,2.48-.23,5.06,1.26,7.23a3.57,3.57,0,0,1,.19,2.86c-.13.6-.2,1.22-.39,1.87a6.06,6.06,0,0,0-.32,3.17c.43,1.77,2.06,2.75,3.5,3.62a22.41,22.41,0,0,0,11.92,3.62h.42a14.43,14.43,0,0,0,6.07-1.53,11.65,11.65,0,0,0,1.75-1.19c.34-.26.66-.51,1-.75a7.5,7.5,0,0,1,4.2-1l.33,0c3.79-.21,7.46-1.47,11-2.69,1-.35,2.06-.71,3.07-1l1.54-.47a26.78,26.78,0,0,0,4.87-1.79,14.26,14.26,0,0,0,2.86-2.17,13.64,13.64,0,0,1,2.55-2,25.13,25.13,0,0,1,5.76-2,24.37,24.37,0,0,0,6.49-2.38,14.3,14.3,0,0,0,6.79-9.08,4.66,4.66,0,0,0,1.27-.52,6.87,6.87,0,0,0,2.88-4.37l.1-.34c.64-2.17,1.14-3.89,2.8-5.59a22.58,22.58,0,0,1,6.88-4.41c.63-.29,1.34-.56,2.09-.84a15.76,15.76,0,0,0,4.41-2.16c1.31-1.05,1.36-2.44,1.41-3.78l0-.75c0-.5.08-1,.13-1.52a31,31,0,0,0,.14-5.45c4.15-1.9,7.26-4.88,6.57-10-.05-.44-.14-.87-.23-1.29a7,7,0,0,1-.21-2.79,7.57,7.57,0,0,1,1.29-2.63c.23-.34.46-.7.68-1.06a10.73,10.73,0,0,0,1.59-5.23A10.26,10.26,0,0,0,471.24,143.05ZM464.6,111c.06.19.13.39.19.6s.15.47.23.72c-.08-.25-.15-.49-.23-.72S464.66,111.16,464.6,111Zm-3.79,9.51a1.18,1.18,0,0,0-.09.37v0A1.18,1.18,0,0,1,460.81,120.48Zm-2-30.31-.84-.46h0l.84.46.51.31Zm1.5.85a1.87,1.87,0,0,0,.34,0A1.87,1.87,0,0,1,460.3,91Zm3,31.44a1.78,1.78,0,0,1-.74.17h0a1.78,1.78,0,0,0,.74-.17,9.92,9.92,0,0,0,4.08-3.16A9.92,9.92,0,0,1,463.3,122.46Zm-1.93-31.72.06,0a1,1,0,0,0,.13-.17,1,1,0,0,1-.13.17Zm-98.14,99.1c0,.07,0,.14-.05.21v0l0-.26Zm105.23-73.4-.26-.15-.21-.11.21.11Zm-2,0a1.13,1.13,0,0,1,.87-.44,1.13,1.13,0,0,0-.87.44.73.73,0,0,0,.14,1c.15.12.28.24.41.36l.2.21-.2-.21c-.13-.12-.26-.24-.41-.36A.73.73,0,0,1,466.45,116.43Zm-5.7-27.58c.24.21.48.42.7.65a.9.9,0,0,1,.15.19.9.9,0,0,0-.15-.19c-.22-.23-.46-.44-.7-.65-.09-.2-.18-.41-.26-.62C460.57,88.44,460.66,88.65,460.75,88.85Zm-3.16-15.73q.2.63.36,1.29-.17-.66-.36-1.29a13,13,0,0,0-1.23-2.76A13,13,0,0,1,457.59,73.12ZM447.21,62.45l-.92-.52a10.86,10.86,0,0,0,.69-1.42,10.86,10.86,0,0,1-.69,1.42Zm-4.16-19.39a5.26,5.26,0,0,1,.43.94,8.76,8.76,0,0,1,.29,1,8.76,8.76,0,0,0-.29-1,5.26,5.26,0,0,0-.43-.94c-.1-.19-.22-.37-.33-.55C442.83,42.69,443,42.87,443.05,43.06Zm-14.89-19.9-1.11-.64Zm-1.65-1-.53-.33-.05-.08.05.08Zm-4.78-5.92c.15.24.28.47.41.7-.13-.23-.26-.46-.41-.7a7.16,7.16,0,0,0-.81-1.09A7.16,7.16,0,0,1,421.73,16.27ZM376.82.63c1.13-.09,2.27-.12,3.42-.12-1.15,0-2.29,0-3.42.12a22.13,22.13,0,0,0-5.23,1A22.13,22.13,0,0,1,376.82.63Zm-5.95,1.29c-.47.18-.93.37-1.38.59C369.94,2.29,370.4,2.1,370.87,1.92Z"/><path class="cls-1" d="M354.37,2.72,349,.21a2.2,2.2,0,0,0-.95-.21H319.26a2.19,2.19,0,0,0-1.36.46L277.47,32.1l-.91.71V53.62a2,2,0,0,1-1.26,1.81c-4.25,1.73-11.4,6.12-11.56,16.19a2,2,0,0,1-.65,1.44l-10,8.86a1.91,1.91,0,0,0-.67,1.44v23.57a1.94,1.94,0,0,1-.78,1.54l-11.61,8.88a1.94,1.94,0,0,0-.78,1.54v30.54a1.92,1.92,0,0,0,.55,1.33l6.2,6.47a1.92,1.92,0,0,1,.55,1.33v8.94a1.9,1.9,0,0,0,.62,1.4l20.64,19.37a1.91,1.91,0,0,1,.62,1.4v10a2,2,0,0,0,.62,1.41l29.52,27.68a2.22,2.22,0,0,0,1.5.58h46.78a2.24,2.24,0,0,0,1.05-.26l6.56-3.53a2,2,0,0,0,1.06-1.72v-.86a2.06,2.06,0,0,0-2.12-2h0a2.31,2.31,0,0,0-1.06.26l-5.76,3.1a2.24,2.24,0,0,1-1.05.26H302.18a2.22,2.22,0,0,1-1.5-.58l-26.56-24.91a1.93,1.93,0,0,1-.62-1.41v-9.95a2,2,0,0,0-.62-1.4L252.23,167a1.93,1.93,0,0,1-.62-1.41v-8.79a1.89,1.89,0,0,0-.54-1.33L244.86,149a1.93,1.93,0,0,1-.54-1.33V121.13a1.94,1.94,0,0,1,.78-1.54l11.61-8.88a2,2,0,0,0,.78-1.54V85.4a2,2,0,0,1,.66-1.45l10.76-9.55-.08-1.11c-.85-12,10.26-14.16,10.73-14.24l.33-.06a2,2,0,0,0,1.71-2V36a2,2,0,0,1,.76-1.53L319.73,5.19a2.19,2.19,0,0,1,1.36-.46h25.79a2.2,2.2,0,0,1,.95.21l4.65,2.18a2.15,2.15,0,0,0,.94.21h0a2.06,2.06,0,0,0,2.12-2V4.5A2,2,0,0,0,354.37,2.72Z"/><path class="cls-2" d="M353.21,16.21v-.62L342,8.3a.69.69,0,0,0-.39-.12h-19a.72.72,0,0,0-.43.15l-32,25.39a.62.62,0,0,0-.23.48V56.39a.62.62,0,0,1-.26.49l-13.27,9.89a.61.61,0,0,0-.25.49v5.89a5.44,5.44,0,0,1-2.31,4.39L265,83.86a.64.64,0,0,0-.26.5v25.35a.62.62,0,0,1-.21.45l-12,10.78a.59.59,0,0,0-.21.46v19.48a.57.57,0,0,0,.21.45l10.12,9a.62.62,0,0,1,.21.46v11.09a.58.58,0,0,0,.18.43l18.82,18.9a.64.64,0,0,1,.18.43v9.4a.6.6,0,0,0,.21.46l23.31,21.09a.69.69,0,0,0,.47.18h36.14a.65.65,0,0,0,.46-.18l10.8-9.69a.58.58,0,0,0,.21-.45ZM350.93,201.9l-9.29,8.34a.71.71,0,0,1-.47.17h-34.1a.71.71,0,0,1-.47-.17L284.79,190.5a.62.62,0,0,1-.21-.45v-4.72a.68.68,0,0,1,1.15-.45l23.62,22.27a.67.67,0,0,0,.47.18h15.39a.62.62,0,0,0,.46-1.09L316.15,198a.7.7,0,0,0-.95,0l-.8.8a.61.61,0,0,0,0,.9l4.79,4.15a.63.63,0,0,1-.46,1.1h-7.9a.67.67,0,0,1-.47-.19l-26.17-24.66-18.65-18.73a.6.6,0,0,1-.18-.43V149.78a.64.64,0,0,0-.21-.46l-10.12-9a.64.64,0,0,1-.21-.46V122.41a.64.64,0,0,1,.21-.46l12-10.78a.6.6,0,0,0,.21-.45V85.53a.63.63,0,0,1,.26-.5L275,79.64a.68.68,0,0,1,1.09.5v4.08a1.08,1.08,0,0,0,1.11,1h.29a1.09,1.09,0,0,0,1.12-1V71a5.94,5.94,0,0,1,2.44-4.74l10.81-8.05,0,0,10-6.61a.74.74,0,0,1,.39-.11H314a.66.66,0,0,1,.43.15L344,75.49a.7.7,0,0,0,.95-.07l.76-.84a.61.61,0,0,0-.07-.89L318.07,51.48h2.1a.66.66,0,0,1,.43.15l27.86,22.09a.7.7,0,0,0,1-.07l.76-.84a.61.61,0,0,0-.08-.89L322.41,50a.58.58,0,0,1-.23-.5l.42-9.79a.66.66,0,0,1,.67-.61h1.21a.65.65,0,0,1,.67.63v6.93a.63.63,0,0,0,.24.48l13.07,10.52a.71.71,0,0,0,1-.06l.76-.84a.61.61,0,0,0-.07-.89L327.91,46a.6.6,0,0,1-.23-.48v-8.2a.67.67,0,0,0-.68-.64h-6.15a.66.66,0,0,0-.67.61l-.49,11.21a.65.65,0,0,1-.67.6H301.51a.67.67,0,0,0-.39.12l-7.64,5.05a.67.67,0,0,1-1.06-.52V35.3a.58.58,0,0,1,.24-.48l1.94-1.54a.67.67,0,0,1,1.1.48V46a.66.66,0,0,0,.68.63h20.09a.65.65,0,0,0,.67-.63V37.46a.63.63,0,0,1,.24-.48l9.71-7.53a.66.66,0,0,1,.43-.15H337a.65.65,0,0,0,.68-.63v-1.1a.65.65,0,0,0-.68-.63H326.61a.71.71,0,0,0-.43.14l-11.32,8.78a.63.63,0,0,0-.24.49V43.6a.66.66,0,0,1-.68.64h-15a.66.66,0,0,1-.67-.64V31.54h-1.45L323,10.7a.69.69,0,0,1,.44-.15h17.33a.73.73,0,0,1,.38.11l9.21,6a.63.63,0,0,1,.29.52l.18,72.92a.68.68,0,0,1-1.13.46l-18.51-16a.72.72,0,0,0-.92,0L310,92.18a.7.7,0,0,1-.93,0L291.93,76.26a.61.61,0,0,1,0-.94L310.05,61a2.25,2.25,0,0,1,2.9.11l5,4.72a1.27,1.27,0,0,1,0,1.93l-6.65,5.7a1.94,1.94,0,0,1-2.52,0l-1.9-1.71.64-.63a1,1,0,0,0,0-1.41l-.06-.06a1.25,1.25,0,0,0-1.75,0l-1,1a1.36,1.36,0,0,0,0,2l4,4a1.9,1.9,0,0,0,2.56.1L321.42,68a1.5,1.5,0,0,0,.06-2.25l-8.18-7.64A2.6,2.6,0,0,0,310,58L288.23,75.19a.61.61,0,0,0,0,.93L309,95.44a.7.7,0,0,0,.93,0l20.37-17.7a.69.69,0,0,1,.91,0l19.43,16.8a.62.62,0,0,1,.22.47l.21,87.65-.9-.87a.7.7,0,0,0-.95,0l-19.4,17.62a.71.71,0,0,1-.93,0l-9.05-8a.6.6,0,0,1,0-.92l11-9.61a.62.62,0,0,0,.21-.46l.67-48.62a.62.62,0,0,1,.21-.45l17.82-15.52a.61.61,0,0,0,0-.89l-.8-.81a.71.71,0,0,0-1,0l-18.6,16.2a.61.61,0,0,0-.22.46l-.67,48.62a.62.62,0,0,1-.21.46l-12.15,10.64a.61.61,0,0,0,0,.92l12.75,11.28a.71.71,0,0,0,.93,0L350,184.43a.69.69,0,0,1,1.15.45l0,8.34a2.09,2.09,0,0,0-2.84,0l-7.19,6.6a1.12,1.12,0,0,0,0,1.67h0a1.32,1.32,0,0,0,1.79,0l7.12-6.54a.68.68,0,0,1,1.14.45l0,6.06A.62.62,0,0,1,350.93,201.9Z"/><path class="cls-2" d="M334.17,42.65a1.13,1.13,0,0,1-.42-.88V37.85A1.22,1.22,0,0,1,335,36.66h4.19a1.23,1.23,0,0,0,1.26-1.18h0a1.23,1.23,0,0,0-1.26-1.18h-6.71a1.22,1.22,0,0,0-1.26,1.18v7.35a1.18,1.18,0,0,0,.41.88L348,57.49a1.32,1.32,0,0,0,1.78-.09h0a1.13,1.13,0,0,0-.1-1.67Z"/><path class="cls-2" d="M336.36,21h-8.74a1.28,1.28,0,0,0-.82.29L311.4,33.7a1.14,1.14,0,0,0-.44.89v6a1.22,1.22,0,0,1-1.26,1.18h-5.49A1.22,1.22,0,0,1,303,40.59V31a1.27,1.27,0,0,0-2.53,0V43a1.23,1.23,0,0,0,1.27,1.19h10.53A1.22,1.22,0,0,0,313.48,43V35.68a1.16,1.16,0,0,1,.44-.9l13.82-11.14a1.33,1.33,0,0,1,.82-.28h7.8a1.19,1.19,0,1,0,0-2.37Z"/><path class="cls-2" d="M314.65,85.37a1.33,1.33,0,0,0,1.79,0l13.61-12.12a1.32,1.32,0,0,1,1.71,0l11.78,9.92a1.31,1.31,0,0,0,1.78-.09h0a1.13,1.13,0,0,0-.1-1.67L331.71,70a1.32,1.32,0,0,0-1.71,0L314.7,83.7A1.14,1.14,0,0,0,314.65,85.37Z"/><path class="cls-2" d="M308.69,101.77a1.1,1.1,0,0,0,1.47,0l18.35-16a1.09,1.09,0,0,1,1.52.09l.28.32a1.11,1.11,0,0,0,1.48.14l.33-.26a.94.94,0,0,0,.14-1.38l-2-2.26a1.09,1.09,0,0,0-1.52-.09L310.27,98.49a1.09,1.09,0,0,1-1.47,0L285.89,76a1,1,0,0,1,.1-1.44l23.9-18.2a1.79,1.79,0,0,1,2.22.06l12.2,10.43a.94.94,0,0,1,0,1.47L311.51,78.67a1.1,1.1,0,0,1-.68.24h-3a1,1,0,0,0-1.05,1v.4a1,1,0,0,0,1.05,1h3.9a1.09,1.09,0,0,0,.68-.23l15.64-12.65a.94.94,0,0,0,0-1.47L313.28,54.24a3.56,3.56,0,0,0-4.42-.12L282.28,74.36a.94.94,0,0,0-.1,1.44Z"/><path class="cls-2" d="M330.63,94.32l-11.48,8.4a1.13,1.13,0,0,0-.49.93V131a1.15,1.15,0,0,1-.41.87l-20.61,17.69a1.31,1.31,0,0,1-.85.31H282.73a1.22,1.22,0,0,1-1.26-1.19v-10.3a1.17,1.17,0,0,0-.37-.84l-10.73-10.06a1.32,1.32,0,0,0-1.78,0,1.13,1.13,0,0,0,0,1.67l10,9.37a1.17,1.17,0,0,1,.37.84V151a1.22,1.22,0,0,0,1.26,1.18h17.56a1.31,1.31,0,0,0,.85-.31l22.15-19a1.11,1.11,0,0,0,.41-.87V104.8a1.16,1.16,0,0,1,.49-.93l9.83-7.18a1.25,1.25,0,0,1,.77-.25h7a1.23,1.23,0,0,1,1.26,1.18v13.67a1.23,1.23,0,0,1-1.26,1.19h-2.93a1.22,1.22,0,0,1-1.26-1.19v-6.46a1.23,1.23,0,0,0-1.26-1.18h0a1.22,1.22,0,0,0-1.26,1.18v8.83a1.22,1.22,0,0,0,1.26,1.18h8a1.23,1.23,0,0,0,1.26-1.18V95.25a1.23,1.23,0,0,0-1.26-1.18h-10.4A1.32,1.32,0,0,0,330.63,94.32Z"/><path class="cls-2" d="M284.77,131.26a1.18,1.18,0,0,1,.38.85v16.06a1.26,1.26,0,0,0,2.52,0V131.11a1.16,1.16,0,0,0-.38-.85l-18.41-16.67a1.33,1.33,0,0,0-1.79,0h0a1.14,1.14,0,0,0,0,1.68Z"/><path class="cls-2" d="M288.58,130.15a1.15,1.15,0,0,1,.36.83v15a1.23,1.23,0,0,0,1.26,1.18h5.54a1.31,1.31,0,0,0,.86-.31l19.61-17.06a1.15,1.15,0,0,0,.07-1.68h0a1.35,1.35,0,0,0-1.79-.06l-18.88,16.43a1.27,1.27,0,0,1-.86.32h-2a1.23,1.23,0,0,1-1.26-1.18V130a1.16,1.16,0,0,0-.36-.84l-18.86-17.81a1.15,1.15,0,0,1-.36-.83v-1.25a1.27,1.27,0,0,1,2.12-.86l7.8,6.93a1.32,1.32,0,0,0,1.78,0,1.13,1.13,0,0,0,0-1.67l-12.06-10.72a1.27,1.27,0,0,0-2.13.85v7.73a1.13,1.13,0,0,0,.37.84Z"/><path class="cls-2" d="M282,102.81a1.27,1.27,0,0,0,2.18-.81V93.87a1.15,1.15,0,0,1,.46-.91l3.11-2.39a1.33,1.33,0,0,1,1.68.07l22.08,20.25a1.18,1.18,0,0,1,.38.85v12.11a1.15,1.15,0,0,1-.4.86L299,135.78a1.27,1.27,0,0,1-2.12-.86V123.15a1.18,1.18,0,0,0-.14-.55l-1.88-3.4a1,1,0,0,1-.14-.54v-6a1.23,1.23,0,0,0-1.26-1.19h0a1.23,1.23,0,0,0-1.27,1.19v6.55a1.08,1.08,0,0,0,.15.54l1.87,3.4a1,1,0,0,1,.15.54V140.4a1.27,1.27,0,0,0,2.12.86L314,125.73a1.12,1.12,0,0,0,.4-.86V110.74a1.16,1.16,0,0,0-.38-.84L289.6,87.47a1.33,1.33,0,0,0-1.68-.07l-5.78,4.44a1.15,1.15,0,0,0-.46.91V96a1.27,1.27,0,0,1-2.18.81l-7.1-7.16a1.35,1.35,0,0,0-1.79-.06,1.14,1.14,0,0,0-.06,1.68Z"/><path class="cls-2" d="M301.42,118h0a1.23,1.23,0,0,0-1.27,1.18v10a1.28,1.28,0,0,0,2.16.83l6.3-6a1.14,1.14,0,0,0,.36-.78l.46-10.12a1.13,1.13,0,0,0-.4-.92L288.49,94.38a1.27,1.27,0,0,0-2.11.87v12a1.27,1.27,0,0,1-2.16.83L272.4,96.82a1.33,1.33,0,0,0-1.79,0,1.13,1.13,0,0,0,0,1.67l16.14,15.38a1.28,1.28,0,0,0,2.16-.83V100.65a1.27,1.27,0,0,1,2.11-.86l15.45,13.36a1.14,1.14,0,0,1,.4.92l-.36,8.11a1.15,1.15,0,0,1-.37.78l-1.3,1.24a1.27,1.27,0,0,1-2.15-.84v-4.21A1.23,1.23,0,0,0,301.42,118Z"/><path class="cls-2" d="M326.54,110.24h0a1.22,1.22,0,0,0-1.25,1.18c0,7.11.08,16.69,0,19.54a1.12,1.12,0,0,1-.37.81c-3,2.79-16.59,14.49-26.3,22.8a1.12,1.12,0,0,0-.07,1.66,1.32,1.32,0,0,0,1.79.07c27.17-23.26,27.28-23.66,27.4-24.11,0-.17.16-.63,0-20.77A1.22,1.22,0,0,0,326.54,110.24Z"/><path class="cls-2" d="M346.27,133.24h0a1.21,1.21,0,0,0-1.26,1.18v32a1.15,1.15,0,0,1-.44.89l-.22.18a1.27,1.27,0,0,1-2.09-.89V136.47a1.23,1.23,0,0,0-1.26-1.19h-5.14a1.23,1.23,0,0,0-1.26,1.19v45.44a1.23,1.23,0,0,0,1.26,1.19h1.05L332,187.63a1.14,1.14,0,0,0,0,1.68,1.32,1.32,0,0,0,1.78,0l7.32-6.7a1.15,1.15,0,0,0,0-1.68,1.34,1.34,0,0,0-1.79,0v0a1.27,1.27,0,0,1-2.14-.85V138.83a1.22,1.22,0,0,1,1.26-1.18h.09a1.23,1.23,0,0,1,1.26,1.18v33a1.27,1.27,0,0,0,2.09.89l5.26-4.31a1.14,1.14,0,0,0,.44-.89V134.42A1.22,1.22,0,0,0,346.27,133.24Z"/><path class="cls-2" d="M325,173.87l.81-33.45a1.27,1.27,0,0,0-2.1-.91l-21.52,17.77a1.16,1.16,0,0,0-.43.89V162a1.26,1.26,0,0,0,2.52,0v-2.78a1.16,1.16,0,0,1,.43-.89L321,144.85a1.26,1.26,0,0,1,2.09.91l-.65,27.09a1.17,1.17,0,0,1-.38.82l-14.51,13.18a1.33,1.33,0,0,1-1.76,0L271,154.57a1.15,1.15,0,0,1-.37-.84V142.8a1.12,1.12,0,0,0-.37-.83l-6.88-6.46a1.13,1.13,0,0,1,.06-1.72l.6-.5a1.34,1.34,0,0,1,1.76.08l6,6a1.24,1.24,0,0,1,.34.72l1,12.47a1.15,1.15,0,0,0,.35.73L305,183.92a1.34,1.34,0,0,0,1.75.06l12.56-10.39a1.15,1.15,0,0,0,.43-.86l.4-21.67a1.27,1.27,0,0,0-2.12-.88l-8.11,7.12a1.15,1.15,0,0,0-.39.89l.1,4.24a1.23,1.23,0,0,0,1.29,1.15h0a1.21,1.21,0,0,0,1.23-1.21L312,159.2a1.14,1.14,0,0,1,.4-.89l2.93-2.58a1.27,1.27,0,0,1,2.13.88l-.28,15a1.15,1.15,0,0,1-.43.87l-9.92,8.2a1.32,1.32,0,0,1-1.74-.06l-29.18-28.43a1.11,1.11,0,0,1-.34-.73l-1-12.45a1.15,1.15,0,0,0-.33-.72L266,130.08a1.34,1.34,0,0,0-1.76-.08l-4.46,3.68a1.13,1.13,0,0,0,0,1.72l8,7.55a1.12,1.12,0,0,1,.37.83v10.93a1.13,1.13,0,0,0,.37.84l37.29,34.6a1.33,1.33,0,0,0,1.76,0l17-15.46A1.18,1.18,0,0,0,325,173.87Z"/><path class="cls-2" d="M341.56,43.05a1,1,0,0,1-.4-.79v0a1.05,1.05,0,0,1,1.08-1h6.07a1,1,0,0,0,1.08-1V29.28l0-8.48v-.53l-8.77-5.69a4.07,4.07,0,0,0-2.26-.67H323a.64.64,0,0,0-.37.13l-12,9.59v0l-1.45,1.16a1,1,0,0,0-.11,1.43,1.14,1.14,0,0,0,1.53.1l4.45-3.62,8.37-6.65a.65.65,0,0,1,.38-.13h14.88a.64.64,0,0,1,.33.1l6.72,4.36A3.1,3.1,0,0,1,347.21,23l0,6.3h0v8.87a1,1,0,0,1-1.08,1h-6.08a1.06,1.06,0,0,0-1.08,1v3a1,1,0,0,0,.4.79l9.14,7a1.13,1.13,0,0,0,1.52-.15h0a1,1,0,0,0-.15-1.43Z"/></g></g></svg>